<svg width="222" height="41" viewBox="0 0 222 41" fill="none" xmlns="http://www.w3.org/2000/svg">
<path d="M1.5 33V9.72727H11.5455C13.2727 9.72727 14.7841 10.0682 16.0795 10.75C17.375 11.4318 18.3826 12.3902 19.1023 13.625C19.822 14.8598 20.1818 16.303 20.1818 17.9545C20.1818 19.6212 19.8106 21.0644 19.0682 22.2841C18.3333 23.5038 17.2992 24.4432 15.9659 25.1023C14.6402 25.7614 13.0909 26.0909 11.3182 26.0909H5.31818V21.1818H10.0455C10.7879 21.1818 11.4205 21.053 11.9432 20.7955C12.4735 20.5303 12.8788 20.1553 13.1591 19.6705C13.447 19.1856 13.5909 18.6136 13.5909 17.9545C13.5909 17.2879 13.447 16.7197 13.1591 16.25C12.8788 15.7727 12.4735 15.4091 11.9432 15.1591C11.4205 14.9015 10.7879 14.7727 10.0455 14.7727H7.81818V33H1.5ZM30.625 33.3182C28.7311 33.3182 27.1098 32.9432 25.7614 32.1932C24.4129 31.4356 23.3788 30.3826 22.6591 29.0341C21.9394 27.678 21.5795 26.1061 21.5795 24.3182C21.5795 22.5303 21.9394 20.9621 22.6591 19.6136C23.3788 18.2576 24.4129 17.2045 25.7614 16.4545C27.1098 15.697 28.7311 15.3182 30.625 15.3182C32.5189 15.3182 34.1402 15.697 35.4886 16.4545C36.8371 17.2045 37.8712 18.2576 38.5909 19.6136C39.3106 20.9621 39.6705 22.5303 39.6705 24.3182C39.6705 26.1061 39.3106 27.678 38.5909 29.0341C37.8712 30.3826 36.8371 31.4356 35.4886 32.1932C34.1402 32.9432 32.5189 33.3182 30.625 33.3182ZM30.6705 28.6818C31.2008 28.6818 31.6591 28.5038 32.0455 28.1477C32.4318 27.7917 32.7311 27.2841 32.9432 26.625C33.1553 25.9659 33.2614 25.1818 33.2614 24.2727C33.2614 23.3561 33.1553 22.572 32.9432 21.9205C32.7311 21.2614 32.4318 20.7538 32.0455 20.3977C31.6591 20.0417 31.2008 19.8636 30.6705 19.8636C30.1098 19.8636 29.6288 20.0417 29.2273 20.3977C28.8258 20.7538 28.5189 21.2614 28.3068 21.9205C28.0947 22.572 27.9886 23.3561 27.9886 24.2727C27.9886 25.1818 28.0947 25.9659 28.3068 26.625C28.5189 27.2841 28.8258 27.7917 29.2273 28.1477C29.6288 28.5038 30.1098 28.6818 30.6705 28.6818ZM47.8523 28.8636L47.8977 21.4091H48.7159L52.9432 15.5455H59.9886L52.8977 24.6818H51.125L47.8523 28.8636ZM42.2159 33V9.72727H48.4886V33H42.2159ZM52.9886 33L48.9886 26.0909L53.0795 21.6364L60.1705 33H52.9886ZM69.267 33.3182C67.4034 33.3182 65.7973 32.9621 64.4489 32.25C63.108 31.5303 62.0739 30.5 61.3466 29.1591C60.6269 27.8106 60.267 26.197 60.267 24.3182C60.267 22.5152 60.6307 20.9394 61.358 19.5909C62.0852 18.2424 63.1117 17.1932 64.4375 16.4432C65.7633 15.6932 67.3277 15.3182 69.1307 15.3182C70.4489 15.3182 71.642 15.5227 72.7102 15.9318C73.7784 16.3409 74.6913 16.9356 75.4489 17.7159C76.2064 18.4886 76.7898 19.428 77.1989 20.5341C77.608 21.6402 77.8125 22.8864 77.8125 24.2727V25.7273H62.2216V22.2727H72.0398C72.0322 21.7727 71.9034 21.3333 71.6534 20.9545C71.411 20.5682 71.0814 20.2689 70.6648 20.0568C70.2557 19.8371 69.7898 19.7273 69.267 19.7273C68.7595 19.7273 68.2936 19.8371 67.8693 20.0568C67.4451 20.2689 67.1042 20.5644 66.8466 20.9432C66.5966 21.322 66.464 21.7652 66.4489 22.2727V26C66.4489 26.5606 66.5663 27.0606 66.8011 27.5C67.036 27.9394 67.3731 28.2841 67.8125 28.5341C68.2519 28.7841 68.7822 28.9091 69.4034 28.9091C69.8352 28.9091 70.2292 28.8485 70.5852 28.7273C70.9489 28.6061 71.2595 28.4318 71.517 28.2045C71.7746 27.9697 71.964 27.6894 72.0852 27.3636H77.8125C77.6155 28.5758 77.1496 29.6288 76.4148 30.5227C75.6799 31.4091 74.7064 32.0985 73.4943 32.5909C72.2898 33.0758 70.8807 33.3182 69.267 33.3182ZM80.3722 33V15.5455H86.4631V18.8636H86.6449C86.9631 17.6364 87.4669 16.7386 88.1562 16.1705C88.8532 15.6023 89.6676 15.3182 90.5994 15.3182C90.8722 15.3182 91.1411 15.3409 91.4062 15.3864C91.679 15.4242 91.9403 15.4811 92.1903 15.5568V20.9091C91.8797 20.803 91.4972 20.7235 91.0426 20.6705C90.5881 20.6174 90.1979 20.5909 89.8722 20.5909C89.2585 20.5909 88.7055 20.7311 88.2131 21.0114C87.7282 21.2841 87.3456 21.6705 87.0653 22.1705C86.785 22.6629 86.6449 23.2424 86.6449 23.9091V33H80.3722ZM138.781 33V9.72727H148.827C150.554 9.72727 152.065 10.0682 153.361 10.75C154.656 11.4318 155.664 12.3902 156.384 13.625C157.103 14.8598 157.463 16.303 157.463 17.9545C157.463 19.6212 157.092 21.0644 156.349 22.2841C155.615 23.5038 154.58 24.4432 153.247 25.1023C151.921 25.7614 150.372 26.0909 148.599 26.0909H142.599V21.1818H147.327C148.069 21.1818 148.702 21.053 149.224 20.7955C149.755 20.5303 150.16 20.1553 150.44 19.6705C150.728 19.1856 150.872 18.6136 150.872 17.9545C150.872 17.2879 150.728 16.7197 150.44 16.25C150.16 15.7727 149.755 15.4091 149.224 15.1591C148.702 14.9015 148.069 14.7727 147.327 14.7727H145.099V33H138.781ZM167.906 33.3182C166.012 33.3182 164.391 32.9432 163.043 32.1932C161.694 31.4356 160.66 30.3826 159.94 29.0341C159.221 27.678 158.861 26.1061 158.861 24.3182C158.861 22.5303 159.221 20.9621 159.94 19.6136C160.66 18.2576 161.694 17.2045 163.043 16.4545C164.391 15.697 166.012 15.3182 167.906 15.3182C169.8 15.3182 171.421 15.697 172.77 16.4545C174.118 17.2045 175.152 18.2576 175.872 19.6136C176.592 20.9621 176.952 22.5303 176.952 24.3182C176.952 26.1061 176.592 27.678 175.872 29.0341C175.152 30.3826 174.118 31.4356 172.77 32.1932C171.421 32.9432 169.8 33.3182 167.906 33.3182ZM167.952 28.6818C168.482 28.6818 168.94 28.5038 169.327 28.1477C169.713 27.7917 170.012 27.2841 170.224 26.625C170.437 25.9659 170.543 25.1818 170.543 24.2727C170.543 23.3561 170.437 22.572 170.224 21.9205C170.012 21.2614 169.713 20.7538 169.327 20.3977C168.94 20.0417 168.482 19.8636 167.952 19.8636C167.391 19.8636 166.91 20.0417 166.509 20.3977C166.107 20.7538 165.8 21.2614 165.588 21.9205C165.376 22.572 165.27 23.3561 165.27 24.2727C165.27 25.1818 165.376 25.9659 165.588 26.625C165.8 27.2841 166.107 27.7917 166.509 28.1477C166.91 28.5038 167.391 28.6818 167.952 28.6818ZM179.497 33V15.5455H185.77V33H179.497ZM182.634 13.7273C181.785 13.7273 181.058 13.447 180.452 12.8864C179.846 12.3258 179.543 11.6515 179.543 10.8636C179.543 10.0758 179.846 9.40151 180.452 8.84091C181.058 8.2803 181.785 8 182.634 8C183.49 8 184.217 8.2803 184.815 8.84091C185.421 9.40151 185.724 10.0758 185.724 10.8636C185.724 11.6515 185.421 12.3258 184.815 12.8864C184.217 13.447 183.49 13.7273 182.634 13.7273ZM195.239 23.1818V33H188.966V15.5455H194.92V18.8636H195.102C195.481 17.7576 196.148 16.8902 197.102 16.2614C198.064 15.6326 199.186 15.3182 200.466 15.3182C201.701 15.3182 202.773 15.6023 203.682 16.1705C204.598 16.7311 205.307 17.5038 205.807 18.4886C206.314 19.4735 206.564 20.5985 206.557 21.8636V33H200.284V23.1818C200.292 22.3182 200.072 21.6402 199.625 21.1477C199.186 20.6553 198.572 20.4091 197.784 20.4091C197.269 20.4091 196.818 20.5227 196.432 20.75C196.053 20.9697 195.761 21.2879 195.557 21.7045C195.352 22.1136 195.246 22.6061 195.239 23.1818ZM220.062 15.5455V20.0909H208.562V15.5455H220.062ZM210.79 11.3636H217.062V27.3864C217.062 27.6288 217.104 27.8333 217.188 28C217.271 28.1591 217.4 28.2803 217.574 28.3636C217.748 28.4394 217.972 28.4773 218.244 28.4773C218.434 28.4773 218.653 28.4545 218.903 28.4091C219.161 28.3636 219.35 28.3258 219.472 28.2955L220.381 32.7045C220.1 32.7879 219.699 32.8902 219.176 33.0114C218.661 33.1326 218.047 33.2121 217.335 33.25C215.896 33.3258 214.688 33.178 213.71 32.8068C212.733 32.428 211.998 31.8333 211.506 31.0227C211.013 30.2121 210.775 29.197 210.79 27.9773V11.3636Z" fill="url(#paint0_linear_4_5)"/>
<path d="M132.218 9.15781L119.884 5.86572V3.05402C119.884 1.37006 118.605 0 116.917 0H101.646C99.9578 0 98.4885 1.37046 98.4885 3.05514V29.8018C98.4885 31.4864 99.9545 32.8569 101.639 32.8569H106.936L106.844 33.1993C106.633 33.9884 106.742 34.8124 107.152 35.5197C107.561 36.2259 108.222 36.7312 109.012 36.9428L123.761 40.895C124.027 40.966 124.293 40.9999 124.555 40.9999C125.906 40.9999 127.145 40.0994 127.51 38.7366L134.409 12.9013C134.845 11.2742 133.849 9.59488 132.218 9.15781ZM107.345 31.3286H101.639C100.797 31.3286 100.017 30.6437 100.017 29.8018V3.05514C100.017 2.2132 100.801 1.52821 101.647 1.52821H116.917C117.763 1.52821 118.355 2.21264 118.355 3.05402V5.4562L117.468 5.20556C115.838 4.76929 114.179 5.73672 113.743 7.36382L113.303 9.05019L110.641 5.64198C110.497 5.45692 110.278 5.34882 110.043 5.34882C109.808 5.34882 109.587 5.45692 109.442 5.64198L102.566 14.4293C102.35 14.7059 102.35 15.0945 102.567 15.3712L109.312 23.9896L107.345 31.3286ZM112.822 10.8879L109.807 22.1424L104.139 14.9002L110.046 7.35269L112.768 10.8306C112.784 10.8519 112.804 10.8688 112.822 10.8879ZM132.957 12.5059L126.034 38.3412C125.816 39.1545 124.974 39.6378 124.157 39.4189L109.407 35.4667C109.011 35.3604 108.679 35.1071 108.474 34.7532C108.269 34.4 108.215 33.9886 108.32 33.5947L115.243 7.75933C115.461 6.94614 116.303 6.46278 117.12 6.68172L131.87 10.6339C132.687 10.8529 133.175 11.6927 132.957 12.5059Z" fill="url(#paint1_linear_4_5)"/>
<path d="M125.238 17.0011C124.147 16.7086 122.985 16.8778 122.017 17.4373C121.459 16.4691 120.537 15.7416 119.447 15.4493C117.177 14.841 114.828 16.2227 114.21 18.5289C113.853 19.8619 114.955 22.2408 115.942 24.0017C116.432 24.8756 118.114 27.7495 119.178 28.0345C119.262 28.0569 119.356 28.0673 119.461 28.0673C120.684 28.0673 123.203 26.6314 123.997 26.1598C125.732 25.1287 127.876 23.6196 128.233 22.2865C128.851 19.9803 127.508 17.6093 125.238 17.0011ZM126.757 21.891C126.632 22.3568 125.531 23.4443 123.407 24.7313C121.551 25.8559 120.042 26.4603 119.579 26.5372C119.217 26.2392 118.212 24.9612 117.167 23.0594C115.971 20.883 115.561 19.3903 115.686 18.9245C116.022 17.6684 117.145 16.8343 118.361 16.8343C118.589 16.8343 118.821 16.8638 119.051 16.9256C119.983 17.1752 120.697 17.89 120.961 18.8378C121.034 19.0981 121.238 19.3007 121.499 19.3707C121.76 19.4409 122.039 19.3675 122.232 19.1784C122.935 18.4896 123.911 18.2272 124.842 18.4773C126.298 18.8673 127.157 20.3987 126.757 21.891Z" fill="url(#paint2_linear_4_5)"/>
<defs>
<linearGradient id="paint0_linear_4_5" x1="0" y1="21.5" x2="222" y2="21.5" gradientUnits="userSpaceOnUse">
<stop stop-color="white"/>
<stop offset="1" stop-color="#5C4EF4"/>
</linearGradient>
<linearGradient id="paint1_linear_4_5" x1="116.5" y1="0" x2="116.5" y2="40.9999" gradientUnits="userSpaceOnUse">
<stop stop-color="white"/>
<stop offset="1" stop-color="#5C4EF4"/>
</linearGradient>
<linearGradient id="paint2_linear_4_5" x1="121.262" y1="15.3058" x2="121.262" y2="28.0673" gradientUnits="userSpaceOnUse">
<stop stop-color="white"/>
<stop offset="1" stop-color="#5C4EF4"/>
</linearGradient>
</defs>
</svg>
