<svg width="222" height="39" viewBox="0 0 222 39" fill="none" xmlns="http://www.w3.org/2000/svg">
<path d="M1.5 31V7.72727H11.5455C13.2727 7.72727 14.7841 8.06818 16.0795 8.75C17.375 9.43182 18.3826 10.3902 19.1023 11.625C19.822 12.8598 20.1818 14.303 20.1818 15.9545C20.1818 17.6212 19.8106 19.0644 19.0682 20.2841C18.3333 21.5038 17.2992 22.4432 15.9659 23.1023C14.6402 23.7614 13.0909 24.0909 11.3182 24.0909H5.31818V19.1818H10.0455C10.7879 19.1818 11.4205 19.053 11.9432 18.7955C12.4735 18.5303 12.8788 18.1553 13.1591 17.6705C13.447 17.1856 13.5909 16.6136 13.5909 15.9545C13.5909 15.2879 13.447 14.7197 13.1591 14.25C12.8788 13.7727 12.4735 13.4091 11.9432 13.1591C11.4205 12.9015 10.7879 12.7727 10.0455 12.7727H7.81818V31H1.5ZM30.625 31.3182C28.7311 31.3182 27.1098 30.9432 25.7614 30.1932C24.4129 29.4356 23.3788 28.3826 22.6591 27.0341C21.9394 25.678 21.5795 24.1061 21.5795 22.3182C21.5795 20.5303 21.9394 18.9621 22.6591 17.6136C23.3788 16.2576 24.4129 15.2045 25.7614 14.4545C27.1098 13.697 28.7311 13.3182 30.625 13.3182C32.5189 13.3182 34.1402 13.697 35.4886 14.4545C36.8371 15.2045 37.8712 16.2576 38.5909 17.6136C39.3106 18.9621 39.6705 20.5303 39.6705 22.3182C39.6705 24.1061 39.3106 25.678 38.5909 27.0341C37.8712 28.3826 36.8371 29.4356 35.4886 30.1932C34.1402 30.9432 32.5189 31.3182 30.625 31.3182ZM30.6705 26.6818C31.2008 26.6818 31.6591 26.5038 32.0455 26.1477C32.4318 25.7917 32.7311 25.2841 32.9432 24.625C33.1553 23.9659 33.2614 23.1818 33.2614 22.2727C33.2614 21.3561 33.1553 20.572 32.9432 19.9205C32.7311 19.2614 32.4318 18.7538 32.0455 18.3977C31.6591 18.0417 31.2008 17.8636 30.6705 17.8636C30.1098 17.8636 29.6288 18.0417 29.2273 18.3977C28.8258 18.7538 28.5189 19.2614 28.3068 19.9205C28.0947 20.572 27.9886 21.3561 27.9886 22.2727C27.9886 23.1818 28.0947 23.9659 28.3068 24.625C28.5189 25.2841 28.8258 25.7917 29.2273 26.1477C29.6288 26.5038 30.1098 26.6818 30.6705 26.6818ZM47.8523 26.8636L47.8977 19.4091H48.7159L52.9432 13.5455H59.9886L52.8977 22.6818H51.125L47.8523 26.8636ZM42.2159 31V7.72727H48.4886V31H42.2159ZM52.9886 31L48.9886 24.0909L53.0795 19.6364L60.1705 31H52.9886ZM69.267 31.3182C67.4034 31.3182 65.7973 30.9621 64.4489 30.25C63.108 29.5303 62.0739 28.5 61.3466 27.1591C60.6269 25.8106 60.267 24.197 60.267 22.3182C60.267 20.5152 60.6307 18.9394 61.358 17.5909C62.0852 16.2424 63.1117 15.1932 64.4375 14.4432C65.7633 13.6932 67.3277 13.3182 69.1307 13.3182C70.4489 13.3182 71.642 13.5227 72.7102 13.9318C73.7784 14.3409 74.6913 14.9356 75.4489 15.7159C76.2064 16.4886 76.7898 17.428 77.1989 18.5341C77.608 19.6402 77.8125 20.8864 77.8125 22.2727V23.7273H62.2216V20.2727H72.0398C72.0322 19.7727 71.9034 19.3333 71.6534 18.9545C71.411 18.5682 71.0814 18.2689 70.6648 18.0568C70.2557 17.8371 69.7898 17.7273 69.267 17.7273C68.7595 17.7273 68.2936 17.8371 67.8693 18.0568C67.4451 18.2689 67.1042 18.5644 66.8466 18.9432C66.5966 19.322 66.464 19.7652 66.4489 20.2727V24C66.4489 24.5606 66.5663 25.0606 66.8011 25.5C67.036 25.9394 67.3731 26.2841 67.8125 26.5341C68.2519 26.7841 68.7822 26.9091 69.4034 26.9091C69.8352 26.9091 70.2292 26.8485 70.5852 26.7273C70.9489 26.6061 71.2595 26.4318 71.517 26.2045C71.7746 25.9697 71.964 25.6894 72.0852 25.3636H77.8125C77.6155 26.5758 77.1496 27.6288 76.4148 28.5227C75.6799 29.4091 74.7064 30.0985 73.4943 30.5909C72.2898 31.0758 70.8807 31.3182 69.267 31.3182ZM80.3722 31V13.5455H86.4631V16.8636H86.6449C86.9631 15.6364 87.4669 14.7386 88.1562 14.1705C88.8532 13.6023 89.6676 13.3182 90.5994 13.3182C90.8722 13.3182 91.1411 13.3409 91.4062 13.3864C91.679 13.4242 91.9403 13.4811 92.1903 13.5568V18.9091C91.8797 18.803 91.4972 18.7235 91.0426 18.6705C90.5881 18.6174 90.1979 18.5909 89.8722 18.5909C89.2585 18.5909 88.7055 18.7311 88.2131 19.0114C87.7282 19.2841 87.3456 19.6705 87.0653 20.1705C86.785 20.6629 86.6449 21.2424 86.6449 21.9091V31H80.3722ZM138.781 31V7.72727H148.827C150.554 7.72727 152.065 8.06818 153.361 8.75C154.656 9.43182 155.664 10.3902 156.384 11.625C157.103 12.8598 157.463 14.303 157.463 15.9545C157.463 17.6212 157.092 19.0644 156.349 20.2841C155.615 21.5038 154.58 22.4432 153.247 23.1023C151.921 23.7614 150.372 24.0909 148.599 24.0909H142.599V19.1818H147.327C148.069 19.1818 148.702 19.053 149.224 18.7955C149.755 18.5303 150.16 18.1553 150.44 17.6705C150.728 17.1856 150.872 16.6136 150.872 15.9545C150.872 15.2879 150.728 14.7197 150.44 14.25C150.16 13.7727 149.755 13.4091 149.224 13.1591C148.702 12.9015 148.069 12.7727 147.327 12.7727H145.099V31H138.781ZM167.906 31.3182C166.012 31.3182 164.391 30.9432 163.043 30.1932C161.694 29.4356 160.66 28.3826 159.94 27.0341C159.221 25.678 158.861 24.1061 158.861 22.3182C158.861 20.5303 159.221 18.9621 159.94 17.6136C160.66 16.2576 161.694 15.2045 163.043 14.4545C164.391 13.697 166.012 13.3182 167.906 13.3182C169.8 13.3182 171.421 13.697 172.77 14.4545C174.118 15.2045 175.152 16.2576 175.872 17.6136C176.592 18.9621 176.952 20.5303 176.952 22.3182C176.952 24.1061 176.592 25.678 175.872 27.0341C175.152 28.3826 174.118 29.4356 172.77 30.1932C171.421 30.9432 169.8 31.3182 167.906 31.3182ZM167.952 26.6818C168.482 26.6818 168.94 26.5038 169.327 26.1477C169.713 25.7917 170.012 25.2841 170.224 24.625C170.437 23.9659 170.543 23.1818 170.543 22.2727C170.543 21.3561 170.437 20.572 170.224 19.9205C170.012 19.2614 169.713 18.7538 169.327 18.3977C168.94 18.0417 168.482 17.8636 167.952 17.8636C167.391 17.8636 166.91 18.0417 166.509 18.3977C166.107 18.7538 165.8 19.2614 165.588 19.9205C165.376 20.572 165.27 21.3561 165.27 22.2727C165.27 23.1818 165.376 23.9659 165.588 24.625C165.8 25.2841 166.107 25.7917 166.509 26.1477C166.91 26.5038 167.391 26.6818 167.952 26.6818ZM179.497 31V13.5455H185.77V31H179.497ZM182.634 11.7273C181.785 11.7273 181.058 11.447 180.452 10.8864C179.846 10.3258 179.543 9.65151 179.543 8.86364C179.543 8.07576 179.846 7.40151 180.452 6.84091C181.058 6.2803 181.785 6 182.634 6C183.49 6 184.217 6.2803 184.815 6.84091C185.421 7.40151 185.724 8.07576 185.724 8.86364C185.724 9.65151 185.421 10.3258 184.815 10.8864C184.217 11.447 183.49 11.7273 182.634 11.7273ZM195.239 21.1818V31H188.966V13.5455H194.92V16.8636H195.102C195.481 15.7576 196.148 14.8902 197.102 14.2614C198.064 13.6326 199.186 13.3182 200.466 13.3182C201.701 13.3182 202.773 13.6023 203.682 14.1705C204.598 14.7311 205.307 15.5038 205.807 16.4886C206.314 17.4735 206.564 18.5985 206.557 19.8636V31H200.284V21.1818C200.292 20.3182 200.072 19.6402 199.625 19.1477C199.186 18.6553 198.572 18.4091 197.784 18.4091C197.269 18.4091 196.818 18.5227 196.432 18.75C196.053 18.9697 195.761 19.2879 195.557 19.7045C195.352 20.1136 195.246 20.6061 195.239 21.1818ZM220.062 13.5455V18.0909H208.562V13.5455H220.062ZM210.79 9.36364H217.062V25.3864C217.062 25.6288 217.104 25.8333 217.188 26C217.271 26.1591 217.4 26.2803 217.574 26.3636C217.748 26.4394 217.972 26.4773 218.244 26.4773C218.434 26.4773 218.653 26.4545 218.903 26.4091C219.161 26.3636 219.35 26.3258 219.472 26.2955L220.381 30.7045C220.1 30.7879 219.699 30.8902 219.176 31.0114C218.661 31.1326 218.047 31.2121 217.335 31.25C215.896 31.3258 214.688 31.178 213.71 30.8068C212.733 30.428 211.998 29.8333 211.506 29.0227C211.013 28.2121 210.775 27.197 210.79 25.9773V9.36364Z" fill="url(#paint0_linear_14_189)"/>
<path d="M100.205 21.8592C100.205 23.7969 100.587 25.7157 101.328 27.506C102.07 29.2962 103.157 30.9228 104.527 32.293C105.897 33.6632 107.524 34.7501 109.314 35.4917C111.104 36.2332 113.023 36.6149 114.961 36.6149C116.899 36.6149 118.817 36.2332 120.608 35.4917C122.398 34.7501 124.024 33.6632 125.395 32.293C126.765 30.9228 127.852 29.2962 128.593 27.506C129.335 25.7157 129.716 23.7969 129.716 21.8592C129.716 19.9215 129.335 18.0027 128.593 16.2124C127.852 14.4222 126.765 12.7955 125.395 11.4254C124.024 10.0552 122.398 8.96827 120.608 8.22673C118.817 7.48518 116.899 7.10352 114.961 7.10352C113.023 7.10352 111.104 7.48518 109.314 8.22673C107.524 8.96827 105.897 10.0552 104.527 11.4254C103.157 12.7955 102.07 14.4222 101.328 16.2124C100.587 18.0027 100.205 19.9215 100.205 21.8592Z" fill="#FF7100"/>
<path d="M114.9 11.8508C114.253 10.456 115.508 8.50075 117.703 7.48379C119.897 6.46683 122.2 6.77339 122.846 8.16827L114.9 11.8508Z" fill="#30C03F"/>
<path d="M114.9 11.8509C115.546 13.2458 117.849 13.5523 120.044 12.5354C122.238 11.5184 123.493 9.56337 122.846 8.16833L114.9 11.8509Z" fill="#97CF43"/>
<path d="M109.833 11.8906C109.833 11.9876 109.853 12.0838 109.89 12.1734C109.927 12.2631 109.981 12.3446 110.05 12.4133C110.119 12.4819 110.2 12.5364 110.29 12.5735C110.38 12.6106 110.476 12.6298 110.573 12.6298C110.67 12.6298 110.766 12.6106 110.856 12.5735C110.945 12.5364 111.027 12.4819 111.095 12.4133C111.164 12.3446 111.218 12.2631 111.256 12.1734C111.293 12.0838 111.312 11.9876 111.312 11.8906C111.312 11.7935 111.293 11.6974 111.256 11.6077C111.218 11.518 111.164 11.4365 111.095 11.3679C111.027 11.2992 110.945 11.2448 110.856 11.2076C110.766 11.1705 110.67 11.1514 110.573 11.1514C110.476 11.1514 110.38 11.1705 110.29 11.2076C110.2 11.2448 110.119 11.2992 110.05 11.3679C109.981 11.4365 109.927 11.518 109.89 11.6077C109.853 11.6974 109.833 11.7935 109.833 11.8906Z" fill="#FFA05F"/>
<path d="M106.205 14.8024C106.205 14.9985 106.282 15.1865 106.421 15.3251C106.56 15.4638 106.748 15.5416 106.944 15.5416C107.14 15.5416 107.328 15.4638 107.466 15.3251C107.605 15.1865 107.683 14.9985 107.683 14.8024C107.683 14.6064 107.605 14.4184 107.466 14.2797C107.328 14.1411 107.14 14.0632 106.944 14.0632C106.748 14.0632 106.56 14.1411 106.421 14.2797C106.282 14.4184 106.205 14.6064 106.205 14.8024Z" fill="#FFA05F"/>
<path d="M121.493 13.7834C121.493 13.9794 121.571 14.1675 121.709 14.3061C121.848 14.4447 122.036 14.5226 122.232 14.5226C122.428 14.5226 122.616 14.4447 122.755 14.3061C122.893 14.1675 122.971 13.9794 122.971 13.7834C122.971 13.5873 122.893 13.3993 122.755 13.2607C122.616 13.1221 122.428 13.0442 122.232 13.0442C122.036 13.0442 121.848 13.1221 121.709 13.2607C121.571 13.3993 121.493 13.5873 121.493 13.7834Z" fill="#FFA05F"/>
<path d="M125.121 17.132C125.121 17.3281 125.199 17.5161 125.338 17.6547C125.476 17.7933 125.664 17.8712 125.86 17.8712C126.056 17.8712 126.244 17.7933 126.383 17.6547C126.522 17.5161 126.599 17.3281 126.599 17.132C126.599 16.936 126.522 16.748 126.383 16.6093C126.244 16.4707 126.056 16.3928 125.86 16.3928C125.664 16.3928 125.476 16.4707 125.338 16.6093C125.199 16.748 125.121 16.936 125.121 17.132Z" fill="#FFA05F"/>
<path d="M122.231 18.588C122.231 18.7841 122.309 18.9721 122.448 19.1107C122.587 19.2493 122.775 19.3272 122.971 19.3272C123.167 19.3272 123.355 19.2493 123.493 19.1107C123.632 18.9721 123.71 18.7841 123.71 18.588C123.71 18.392 123.632 18.2039 123.493 18.0653C123.355 17.9267 123.167 17.8488 122.971 17.8488C122.775 17.8488 122.587 17.9267 122.448 18.0653C122.309 18.2039 122.231 18.392 122.231 18.588Z" fill="#FFA05F"/>
<path d="M117.998 15.833C117.998 16.029 118.076 16.217 118.215 16.3556C118.353 16.4943 118.541 16.5722 118.737 16.5722C118.933 16.5722 119.121 16.4943 119.26 16.3556C119.399 16.217 119.476 16.029 119.476 15.833C119.476 15.6369 119.399 15.4489 119.26 15.3103C119.121 15.1716 118.933 15.0938 118.737 15.0938C118.541 15.0938 118.353 15.1716 118.215 15.3103C118.076 15.4489 117.998 15.6369 117.998 15.833Z" fill="#FFA05F"/>
<path d="M125.704 22.6646C125.704 22.8607 125.781 23.0487 125.92 23.1873C126.059 23.3259 126.247 23.4038 126.443 23.4038C126.639 23.4038 126.827 23.3259 126.966 23.1873C127.104 23.0487 127.182 22.8607 127.182 22.6646C127.182 22.4686 127.104 22.2805 126.966 22.1419C126.827 22.0033 126.639 21.9254 126.443 21.9254C126.247 21.9254 126.059 22.0033 125.92 22.1419C125.781 22.2805 125.704 22.4686 125.704 22.6646Z" fill="#FFA05F"/>
<path d="M114.751 12.0111C114.751 12.0111 113.892 6.5978 114.493 5.99636C115.094 5.39492 115.553 5.61604 115.782 5.82452C116.255 6.25412 115.266 10.8082 115.266 11.4096C115.266 12.0111 115.009 12.6125 114.751 12.0111Z" fill="#5A4530"/>
<path d="M113.386 11.9268C113.386 11.9268 114.424 11.763 115.079 11.9268C115.734 12.0907 115.789 12.1452 115.898 12.3091C116.007 12.4729 115.134 12.4182 115.134 12.4182C115.134 12.4182 114.533 12.2543 114.151 12.2543H113.496C113.496 12.2543 113.059 12.0907 113.386 11.9268Z" fill="#5A4530"/>
<defs>
<linearGradient id="paint0_linear_14_189" x1="0" y1="19.5" x2="222" y2="19.5" gradientUnits="userSpaceOnUse">
<stop stop-color="white"/>
<stop offset="1" stop-color="#FF8C25"/>
</linearGradient>
</defs>
</svg>
